<svg width="120" height="40" viewBox="0 0 120 40" xmlns="http://www.w3.org/2000/svg">
<rect width="120" height="40" fill="#FBF4EC"/>
<path fill="#1A1F71" d="M52.1 26.7l3.4-20h5.4l-3.4 20h-5.4zm25.3-19.6c-1.1-.4-2.8-.9-4.9-.9-5.4 0-9.2 2.7-9.2 6.6 0 2.9 2.7 4.5 4.8 5.5 2.2 1 3 1.6 3 2.5 0 1.3-1.8 1.9-3.5 1.9-2.3 0-3.6-.3-5.5-1.1l-.7-.3-0.8 4.8c1.4.6 4 1.1 6.7 1.1 6.3 0 10.4-2.7 10.4-6.9 0-2.3-1.6-4.1-5.1-5.6-2.1-1-3.4-1.6-3.4-2.6 0-.9 1.1-1.8 3.4-1.8 1.9 0 3.4.4 4.5.9l.5.2.8-4.6-.5-.2zm15.3-.4c-1.3 0-2.3.4-2.9 1.7l-8.9 17.9h6.3l1.2-3.3h7.7l.7 3.3h5.6l-4.9-19.6h-4.8zm.8 5.3l1.8 8.6h-5.1l3.3-8.6zM41.4 6.7l-5.9 13.4-2.5-13.4h-5.7l4.8 19.6h6.2l9.6-19.6h-6.5z"/>
</svg>